<?xml version="1.0" standalone="no"?>
<!DOCTYPE svg PUBLIC "-//W3C//DTD SVG 20010904//EN"
 "http://www.w3.org/TR/2001/REC-SVG-20010904/DTD/svg10.dtd">
<svg version="1.0" xmlns="http://www.w3.org/2000/svg"
 width="1396.000000pt" height="1396.000000pt" viewBox="0 0 1396.000000 1396.000000"
 preserveAspectRatio="xMidYMid meet">
<metadata>
Created by potrace 1.14, written by Peter Selinger 2001-2017
</metadata>
<g transform="translate(0.000000,1396.000000) scale(0.100000,-0.100000)"
fill="#000000" stroke="none">
<path d="M6649 13956 c-2 -2 -60 -7 -129 -10 -69 -4 -145 -9 -170 -12 -280
-30 -324 -35 -510 -65 -475 -77 -985 -218 -1447 -403 -208 -82 -328 -137 -556
-252 -539 -271 -1011 -592 -1482 -1005 -142 -125 -391 -368 -505 -494 -40 -44
-90 -98 -110 -120 -125 -136 -401 -492 -541 -700 -463 -683 -798 -1436 -998
-2240 -57 -231 -117 -546 -141 -740 -16 -137 -20 -167 -25 -205 -2 -19 -7 -75
-11 -125 -3 -49 -8 -99 -11 -110 -9 -35 -11 -826 -3 -930 5 -55 12 -138 15
-185 4 -47 8 -98 10 -115 3 -16 12 -86 20 -155 85 -671 265 -1316 545 -1950
23 -52 86 -183 139 -290 778 -1552 2121 -2769 3744 -3391 427 -164 967 -310
1362 -369 44 -7 87 -13 95 -15 8 -1 40 -6 70 -10 30 -3 66 -8 80 -10 14 -2 50
-7 80 -10 30 -3 66 -8 80 -10 30 -4 142 -13 300 -24 244 -17 834 -9 1040 13
25 3 77 8 115 12 247 21 678 97 967 169 1003 251 1941 723 2735 1377 984 810
1722 1857 2152 3057 171 475 316 1102 356 1536 4 39 8 77 10 85 2 8 7 56 10
105 4 50 9 106 12 125 9 62 11 801 3 920 -12 155 -20 258 -25 300 -9 76 -33
258 -41 320 -12 88 -48 279 -80 430 -236 1098 -742 2131 -1473 3004 -342 409
-748 792 -1174 1109 -760 567 -1583 957 -2502 1186 -158 39 -414 93 -510 106
-27 4 -59 9 -70 12 -29 5 -219 31 -290 38 -33 4 -67 8 -75 10 -8 2 -58 7 -110
11 -52 3 -140 9 -195 13 -98 8 -750 13 -756 7z"/>
</g>
</svg>
